<svg xmlns="http://www.w3.org/2000/svg" viewBox="0 0 64 64" fill="none" stroke="#1e3a5f" stroke-width="1.5">
  <!-- Escudo -->
  <path d="M32 4 L56 12 L56 32 C56 46 46 56 32 60 C18 56 8 46 8 32 L8 12 Z" fill="#ffffff" stroke-linejoin="round"/>
  <!-- Listrado (campo) -->
  <rect x="14" y="34" width="36" height="20" fill="#c9a961" stroke="none"/>
  <line x1="14" y1="38" x2="50" y2="38" stroke="#1e3a5f" stroke-width="1"/>
  <line x1="14" y1="42" x2="50" y2="42" stroke="#1e3a5f" stroke-width="1"/>
  <line x1="14" y1="46" x2="50" y2="46" stroke="#1e3a5f" stroke-width="1"/>
  <line x1="14" y1="50" x2="50" y2="50" stroke="#1e3a5f" stroke-width="1"/>
  <!-- Estrela superior -->
  <polygon points="32,10 34,16 40,16 35,20 37,26 32,22 27,26 29,20 24,16 30,16" fill="#1e3a5f" stroke="none"/>
  <!-- Coroa simplificada -->
  <path d="M22 8 L24 4 L28 6 L32 2 L36 6 L40 4 L42 8" stroke="#c9a961" stroke-width="1.5" fill="none" stroke-linejoin="round"/>
</svg>
